<?xml version="1.0" encoding="UTF-8"?>
<svg width="24px" height="24px" viewBox="0 0 24 24" version="1.1" xmlns="http://www.w3.org/2000/svg" xmlns:xlink="http://www.w3.org/1999/xlink">
    <title>Primitives/Icons/iconClose</title>
    <g id="Primitives/Icons/iconClose" stroke="none" stroke-width="1" fill="none" fill-rule="evenodd">
        <path d="M3.29289322,3.29289322 C3.68341751,2.90236893 4.31658249,2.90236893 4.70710678,3.29289322 L4.70710678,3.29289322 L12,10.585 L19.2928932,3.29289322 C19.6533772,2.93240926 20.2206082,2.90467972 20.6128994,3.20970461 L20.7071068,3.29289322 C21.0976311,3.68341751 21.0976311,4.31658249 20.7071068,4.70710678 L20.7071068,4.70710678 L13.415,12 L20.7071068,19.2928932 C21.0675907,19.6533772 21.0953203,20.2206082 20.7902954,20.6128994 L20.7071068,20.7071068 C20.3165825,21.0976311 19.6834175,21.0976311 19.2928932,20.7071068 L19.2928932,20.7071068 L12,13.415 L4.70710678,20.7071068 C4.34662282,21.0675907 3.77939176,21.0953203 3.38710056,20.7902954 L3.29289322,20.7071068 C2.90236893,20.3165825 2.90236893,19.6834175 3.29289322,19.2928932 L3.29289322,19.2928932 L10.585,12 L3.29289322,4.70710678 C2.93240926,4.34662282 2.90467972,3.77939176 3.20970461,3.38710056 Z" id="Combined-Shape" fill="#262626"></path>
    </g>
</svg>