<?xml version="1.0" encoding="UTF-8"?>
<svg width="24px" height="24px" viewBox="0 0 24 24" version="1.1" xmlns="http://www.w3.org/2000/svg" xmlns:xlink="http://www.w3.org/1999/xlink">
    <title>Primitives/Icons/iconSmoking</title>
    <g id="Primitives/Icons/iconSmoking" stroke="none" stroke-width="1" fill="none" fill-rule="evenodd">
        <path d="M17.7720211,17.8924022 C17.8671992,17.7990961 17.9494867,17.6934939 18.0167003,17.5783973 C18.102338,17.4576889 18.1708482,17.3165905 18.2426208,17.1966977 C18.4401081,16.7520658 18.5410169,16.2705946 18.5386826,15.7840831 C18.541009,15.2980984 18.4400955,14.8171609 18.2426208,14.3730998 C18.1762067,14.2408088 18.1007196,14.1132711 18.0167003,13.9914002 C17.9412193,13.8816134 17.8595265,13.7762296 17.7720211,13.6757641 L21.3989824,13.6757641 C22.3034799,13.6757641 23,14.5990202 23,15.7840831 C23,16.9691461 22.3034799,17.8924022 21.3989824,17.8924022 L17.7720211,17.8924022 Z M3.60754233,17.8924022 L3.57247165,17.8924022 C2.68183937,17.8581471 2,16.9536497 2,15.7840831 C2,14.6145166 2.68183937,13.6953384 3.57247165,13.6757641 L16.1522448,13.6757641 C16.6456066,13.6882355 17.0988006,13.9506272 17.3552509,14.3722842 C17.6187137,14.7954965 17.7567257,15.2847604 17.7532624,15.7832675 C17.760815,16.2828288 17.6224963,16.7737466 17.3552509,17.1958821 C17.0988006,17.6175391 16.6456066,17.8799308 16.1522448,17.8924022 L3.60754233,17.8924022 Z M2.6418751,15.8534089 C2.6418751,16.624964 3.06272332,17.2725483 3.55289731,17.2725483 C4.04307131,17.2725483 4.46555072,16.6257796 4.46555072,15.8534089 C4.46555072,15.0810382 4.0447025,14.4301916 3.55289731,14.4301916 C3.06109212,14.4301916 2.6418751,15.083485 2.6418751,15.8558557 L2.6418751,15.8534089 Z M4.8684558,14.4114328 C4.87236162,14.4365768 4.88340137,14.4600717 4.9002641,14.4791274 C4.91494485,14.5133825 4.93533478,14.5288789 4.95001554,14.5663963 C4.96877427,14.5810771 4.96877427,14.6153322 4.98345503,14.6349065 C5.00695879,14.6595668 5.02477571,14.6890761 5.03565325,14.7213598 C5.05441199,14.7368562 5.05441199,14.7556149 5.07072394,14.7890544 C5.08401691,14.8222956 5.09518587,14.8563474 5.10416343,14.8910041 C5.10416343,14.9252592 5.12292217,14.9432023 5.12292217,14.9774574 C5.13923412,15.0117125 5.13923412,15.045152 5.15799285,15.0794071 C5.15799285,15.1136621 5.1743048,15.1332365 5.1743048,15.166676 C5.1743048,15.2001155 5.19143234,15.2539449 5.19143234,15.2873844 C5.19143234,15.3208239 5.20774429,15.3403982 5.20774429,15.3738377 C5.22343422,15.4174326 5.22982418,15.4638292 5.22650303,15.5100424 L5.22650303,16.0630174 C5.22650303,16.1152157 5.20774429,16.1494707 5.20774429,16.1992222 C5.19486399,16.2208235 5.1891538,16.2459483 5.19143234,16.2709947 C5.19143234,16.3052498 5.1743048,16.3582637 5.1743048,16.3917032 C5.1743048,16.4251426 5.15799285,16.4414546 5.15799285,16.4781565 C5.13923412,16.5124116 5.13923412,16.5466666 5.12292217,16.5809217 C5.12292217,16.6143612 5.10416343,16.6298576 5.10416343,16.6681906 C5.09507969,16.7028161 5.08391286,16.7368613 5.07072394,16.7701403 C5.0571236,16.7919477 5.04539158,16.8148661 5.03565325,16.8386505 C5.01852571,16.8729056 5.00384496,16.8908487 4.98345503,16.9259194 C4.98037081,16.9516422 4.96856945,16.9755328 4.95001554,16.993614 C4.93533478,17.0278691 4.91494485,17.0466278 4.9002641,17.0808829 C4.89654002,17.106082 4.88547702,17.1296264 4.8684558,17.1485775 C4.8684558,17.1673362 4.8684558,17.1673362 4.84806587,17.1828326 L16.0755787,17.1828326 C16.5649371,17.1828326 16.9727357,16.5303547 16.9727357,15.7677712 C16.9727357,15.0051877 16.5649371,14.370653 16.0755787,14.370653 L4.84806587,14.370653 C4.84806587,14.3943053 4.8692714,14.3943053 4.8692714,14.4138796 L4.8684558,14.4114328 Z M2.45020973,12.6285371 C2.44143167,12.617922 2.43628648,12.6047732 2.43552897,12.5910196 C2.39468276,11.867494 2.65378189,11.1591093 3.15181108,10.632683 C3.64984027,10.1062567 4.34278425,9.80831392 5.06746155,9.80901712 L7.92857698,9.80901712 C8.00376673,9.81010723 8.07626452,9.78105584 8.12989499,9.72834475 C8.18352546,9.67563366 8.21382598,9.603649 8.21403604,9.52845164 L8.21403604,7.20807724 C8.21396291,7.19444632 8.21856926,7.18120304 8.2270856,7.17055976 C8.5329346,6.83371807 8.91871213,7.04985136 8.91871213,7.35243797 L8.91871213,10.1254689 C8.91875695,10.1683004 8.9113041,10.2108092 8.89669101,10.2510709 C9.02100709,10.3875774 9.01190205,10.5988141 8.87630107,10.7241173 C8.25265209,11.3762222 7.38891694,11.7441203 6.4866009,11.7419828 L4.79994563,11.7419828 C4.67114915,11.7393056 4.54921363,11.7999026 4.47356863,11.9041789 C4.39792363,12.0084551 4.37816907,12.1431771 4.42069287,12.2647807 C4.48972064,12.4249034 4.43395543,12.6114752 4.28838029,12.7074544 C4.14280515,12.8034336 3.94935433,12.7811725 3.82938481,12.6546362 C3.78241156,12.6192925 3.75274273,12.5655919 3.74782507,12.5070131 C3.72139275,12.1277225 3.85346432,11.7544587 4.11255821,11.4761955 C4.37165211,11.1979324 4.73455628,11.0395994 5.1147662,11.0389379 L6.48333851,11.0389379 C7.05006707,11.0350609 7.60083595,10.8508048 8.05581016,10.5128776 L5.06583036,10.5128776 C4.55329314,10.5111365 4.06124584,10.7139707 3.6988252,11.0763913 C3.33640457,11.438812 3.13357036,11.9308593 3.13531148,12.4433965 C3.13531173,12.5367675 3.0981645,12.6263025 3.03206475,12.6922492 C2.965965,12.7581959 2.87634422,12.7951356 2.78297343,12.7949199 C2.65406701,12.7891734 2.53355283,12.7293605 2.45102532,12.6301683 L2.45020973,12.6285371 Z" id="Smoking-Icon" stroke="#262626" stroke-width="0.2" fill="#262626"></path>
    </g>
</svg>