<?xml version="1.0" encoding="UTF-8"?>
<svg width="24px" height="24px" viewBox="0 0 24 24" version="1.1" xmlns="http://www.w3.org/2000/svg" xmlns:xlink="http://www.w3.org/1999/xlink">
    <title>Primitives/Icons/iconReligion</title>
    <g id="Primitives/Icons/iconReligion" stroke="none" stroke-width="1" fill="none" fill-rule="evenodd">
        <path d="M7.97484277,2 C9.69957423,2 11.2039921,2.94392362 12.0003518,4.3436905 C12.7960079,2.94392362 14.3004258,2 16.0251572,2 L16.0251572,2 L22.0628931,2 C22.396348,2 22.6666667,2.27050468 22.6666667,2.60418912 L22.6666667,2.60418912 L22.6666667,17.708917 C22.6666667,18.0426015 22.396348,18.3131062 22.0628931,18.3131062 L22.0628931,18.3131062 L15.0188679,18.3131062 C13.6850482,18.3131062 12.6037736,19.3951249 12.6037736,20.7298626 C12.6037736,21.0751136 12.3819792,21.2723998 12.1284999,21.3217214 L12.0430941,21.3326817 L12.0430941,21.3326817 L11.9569059,21.3326817 C11.6700466,21.3144145 11.3962264,21.1134748 11.3962264,20.7298626 L11.3962264,20.7298626 L11.3932708,20.6092421 C11.3304627,19.3305416 10.2745331,18.3131062 8.98113208,18.3131062 L8.98113208,18.3131062 L1.93710692,18.3131062 C1.60365197,18.3131062 1.33333333,18.0426015 1.33333333,17.708917 L1.33333333,17.708917 L1.33333333,2.60418912 C1.33333333,2.27050468 1.60365197,2 1.93710692,2 L1.93710692,2 Z M7.97484277,3.20837823 L2.54067925,3.20837823 L2.54067925,17.1047279 L8.98113208,17.1047279 C9.89055465,17.1047279 10.7217091,17.4400643 11.357851,17.9939124 L11.357851,17.9939124 L11.3962264,18.0279289 L11.3962264,6.63211657 L11.3962264,6.63211657 L11.3910582,6.44232077 C11.2950043,4.68310304 9.87177839,3.27748777 8.10607854,3.21085052 L8.10607854,3.21085052 L7.97484277,3.20837823 Z M21.458717,3.20837823 L16.0251572,3.20837823 C14.1355792,3.20837823 12.6037736,4.7412381 12.6037736,6.63211657 L12.6037736,6.63211657 L12.6037736,18.0279289 L12.642149,17.9939124 C13.2464838,17.4677567 14.0268174,17.1388078 14.8830561,17.1072284 L14.8830561,17.1072284 L15.0188679,17.1047279 L21.458717,17.1047279 L21.458717,3.20837823 Z" id="Combined-Shape" fill="#262626"></path>
    </g>
</svg>