<?xml version="1.0" encoding="UTF-8"?>
<svg width="24px" height="24px" viewBox="0 0 24 24" version="1.1" xmlns="http://www.w3.org/2000/svg" xmlns:xlink="http://www.w3.org/1999/xlink">
    <title>Primitives/Icons/iconPreferences-New</title>
    <defs>
        <radialGradient cx="79.1709685%" cy="84.8211301%" fx="79.1709685%" fy="84.8211301%" r="89.5278704%" id="radialGradient-1">
            <stop stop-color="#00EAAC" offset="0%"></stop>
            <stop stop-color="#00EAAE" offset="0%"></stop>
            <stop stop-color="#00DEEB" offset="100%"></stop>
        </radialGradient>
    </defs>
    <g id="Primitives/Icons/iconPreferences-New" stroke="none" stroke-width="1" fill="none" fill-rule="evenodd">
        <path d="M17.5,3.5 C18.0522847,3.5 18.5,3.94771525 18.5,4.5 L18.5008388,15.1451891 C19.9461522,15.575732 21,16.9147963 21,18.5 C21,20.4329966 19.4329966,22 17.5,22 C15.5670034,22 14,20.4329966 14,18.5 C14,16.9144302 15.0543346,15.5751135 16.5001626,15.1448909 L16.5,4.5 C16.5,3.94771525 16.9477153,3.5 17.5,3.5 Z M7.5,3 C9.43299662,3 11,4.56700338 11,6.5 C11,8.08520367 9.94615223,9.42426801 8.5008388,9.85481091 L8.5,20.5 C8.5,21.0522847 8.05228475,21.5 7.5,21.5 C6.94771525,21.5 6.5,21.0522847 6.5,20.5 L6.5,20.5 L6.50016263,9.85510906 C5.05433459,9.4248865 4,8.08556977 4,6.5 C4,4.56700338 5.56700338,3 7.5,3 Z M17.5,17 C16.6715729,17 16,17.6715729 16,18.5 C16,19.3284271 16.6715729,20 17.5,20 C18.3284271,20 19,19.3284271 19,18.5 C19,17.6715729 18.3284271,17 17.5,17 Z M7.5,5 C6.67157288,5 6,5.67157288 6,6.5 C6,7.32842712 6.67157288,8 7.5,8 C8.32842712,8 9,7.32842712 9,6.5 C9,5.67157288 8.32842712,5 7.5,5 Z" id="Combined-Shape" fill="#262626"></path>
        <circle id="Notification" fill="url(#radialGradient-1)" cx="19" cy="5" r="3"></circle>
    </g>
</svg>