<?xml version="1.0" encoding="UTF-8"?>
<svg width="24px" height="24px" viewBox="0 0 24 24" version="1.1" xmlns="http://www.w3.org/2000/svg" xmlns:xlink="http://www.w3.org/1999/xlink">
    <title>Primitives/Icons/iconJob</title>
    <g id="Primitives/Icons/iconJob" stroke="none" stroke-width="1" fill="none" fill-rule="evenodd">
        <path d="M15,5.77777778 C15,5.38081603 14.7148583,5.0580681 14.3510236,5.00703346 L14.25,5 L10.75,5 C10.3735637,5 10.0570523,5.28966778 10.0069145,5.67150388 L10,5.77777778 L10,7 L8,7 L8,5.77777778 C8,4.30383785 9.13840734,3.09277019 10.5821113,3.00508334 L10.75,3 L14.25,3 C15.7159559,3 16.9086579,4.15647729 16.9949953,5.60892334 L17,5.77777778 L17,7 L19,7 C20.6568542,7 22,8.34314575 22,10 L22,18 C22,19.6568542 20.6568542,21 19,21 L6,21 C4.34314575,21 3,19.6568542 3,18 L3,10 C3,8.34314575 4.34314575,7 6,7 L15,7 L15,5.77777778 Z M16,9 C15.4871642,9 15.0644928,9.32776997 15.0067277,9.75003867 L15,9.8490566 L15,18.1509434 C15,18.6198644 15.4477153,19 16,19 C16.5128358,19 16.9355072,18.67223 16.9932723,18.2499613 L17,18.1509434 L17,9.8490566 C17,9.38013559 16.5522847,9 16,9 Z M9,9 C8.48716416,9 8.06449284,9.32776997 8.00672773,9.75003867 L8,9.8490566 L8,18.1509434 C8,18.6198644 8.44771525,19 9,19 C9.51283584,19 9.93550716,18.67223 9.99327227,18.2499613 L10,18.1509434 L10,9.8490566 C10,9.38013559 9.55228475,9 9,9 Z" id="Combined-Shape" fill="#262626"></path>
    </g>
</svg>