<?xml version="1.0" encoding="UTF-8"?>
<svg width="24px" height="24px" viewBox="0 0 24 24" version="1.1" xmlns="http://www.w3.org/2000/svg" xmlns:xlink="http://www.w3.org/1999/xlink">
    <title>Primitives/Icons/iconBirthday</title>
    <g id="Primitives/Icons/iconBirthday" stroke="none" stroke-width="1" fill="none" fill-rule="evenodd">
        <path d="M17.9990347,17 C18.7225767,17 19.2065575,17.7448511 18.9126993,18.4061385 L17.5795804,21.4061385 C17.4191049,21.7672665 17.061041,22 16.6659159,22 L7.33408411,22 C6.93895897,22 6.58089509,21.7672665 6.42041957,21.4061385 L5.08730074,18.4061385 C4.79344252,17.7448511 5.27742331,17 6.00096528,17 L17.9990347,17 Z M12.1800099,8 C16.0677867,8 19.4062728,10.4442969 20.0646132,13.8079658 C20.1855,14.4256141 19.7126005,15.0000424 19.0832333,15.0000424 L5.2767864,15.0000424 C4.64741923,15.0000424 4.17451975,14.4256141 4.29540646,13.8079658 C4.95374695,10.4442969 8.29223304,8 12.1800099,8 Z M12,2 L13.4531602,3.50732908 L13.4883367,3.54780163 C14.1964272,4.36249861 14.1670636,5.61287461 13.4158612,6.39207935 C12.6344294,7.20264022 11.3655706,7.20264022 10.5841389,6.39207935 C9.83299152,5.61293171 9.80357158,4.36267011 10.5115227,3.54796341 L10.5467653,3.50740644 L12,2 Z" id="Combined-Shape" fill="#262626"></path>
        <line x1="11.5" y1="5.5" x2="11.5" y2="5.5" id="Line-4" stroke="#979797" stroke-linecap="square"></line>
    </g>
</svg>