<?xml version="1.0" encoding="UTF-8"?>
<svg width="24px" height="24px" viewBox="0 0 24 24" version="1.1" xmlns="http://www.w3.org/2000/svg" xmlns:xlink="http://www.w3.org/1999/xlink">
    <title>Primitives/Icons/iconHaveKids</title>
    <g id="Primitives/Icons/iconHaveKids" stroke="none" stroke-width="1" fill="none" fill-rule="evenodd">
        <path d="M10.3703704,9.48148148 L8.63318519,9.48148148 C8.95666667,9.01907407 9.14814815,8.45766667 9.14814815,7.85185185 C9.14814815,6.27925926 7.86888889,5 6.2962963,5 C4.7237037,5 3.44444444,6.27925926 3.44444444,7.85185185 C3.44444444,8.45766667 3.63592593,9.01907407 3.95940741,9.48148148 L2.22222222,9.48148148 C1.54837037,9.48148148 1,10.0298519 1,10.7037037 C1,11.3775556 1.54837037,11.9259259 2.22222222,11.9259259 L3.44444444,11.9259259 L3.44444444,17.586037 C3.44444444,18.2036667 3.88281481,18.7406296 4.46418519,18.8351481 C4.531,18.8461481 4.59822222,18.8514444 4.66462963,18.8514444 C4.9542963,18.8514444 5.23581481,18.75 5.45825926,18.5605556 C5.73203704,18.3279259 5.88888889,17.9885556 5.88888889,17.6296296 L5.88888889,15.5925926 L6.7037037,15.5925926 L6.7037037,17.6296296 C6.7037037,17.9885556 6.86055556,18.3279259 7.13433333,18.560963 C7.35677778,18.75 7.63788889,18.8518519 7.92796296,18.8518519 C7.99437037,18.8518519 8.06159259,18.8465556 8.12840741,18.8355556 C8.70977778,18.7406296 9.14814815,18.2036667 9.14814815,17.586037 L9.14814815,11.9259259 L10.3703704,11.9259259 C11.0442222,11.9259259 11.5925926,11.3775556 11.5925926,10.7037037 C11.5925926,10.0298519 11.0442222,9.48148148 10.3703704,9.48148148 Z M6.2962963,5.81481481 C7.41951852,5.81481481 8.33333333,6.72862963 8.33333333,7.85185185 C8.33333333,8.97507407 7.41951852,9.88888889 6.2962963,9.88888889 C5.17307407,9.88888889 4.25925926,8.97507407 4.25925926,7.85185185 C4.25925926,6.72862963 5.17307407,5.81481481 6.2962963,5.81481481 Z M10.3703704,11.1111111 L8.74074074,11.1111111 C8.51585185,11.1111111 8.33333333,11.2936296 8.33333333,11.5185185 L8.33333333,17.586037 C8.33333333,17.8048148 8.18585185,18.0003704 7.99722222,18.0313333 C7.87418519,18.0508889 7.75481481,18.0191111 7.66192593,17.9400741 C7.57066667,17.8626667 7.51851852,17.7494074 7.51851852,17.6296296 L7.51851852,15.1851852 C7.51851852,14.9602963 7.336,14.7777778 7.11111111,14.7777778 L5.48148148,14.7777778 C5.25659259,14.7777778 5.07407407,14.9602963 5.07407407,15.1851852 L5.07407407,17.6296296 C5.07407407,17.7494074 5.02192593,17.8626667 4.93025926,17.9400741 C4.83737037,18.0187037 4.71881481,18.0504815 4.59496296,18.0313333 C4.40674074,18.0003704 4.25925926,17.8048148 4.25925926,17.586037 L4.25925926,11.5185185 C4.25925926,11.2936296 4.07674074,11.1111111 3.85185185,11.1111111 L2.22222222,11.1111111 C1.99774074,11.1111111 1.81481481,10.9281852 1.81481481,10.7037037 C1.81481481,10.4792222 1.99774074,10.2962963 2.22222222,10.2962963 L4.83492593,10.2962963 C5.26311111,10.5533704 5.76177778,10.7037037 6.2962963,10.7037037 C6.83081481,10.7037037 7.32948148,10.5533704 7.75766667,10.2962963 L10.3703704,10.2962963 C10.5948519,10.2962963 10.7777778,10.4792222 10.7777778,10.7037037 C10.7777778,10.9281852 10.5948519,11.1111111 10.3703704,11.1111111 Z M23,10.7037037 C23,10.0298519 22.4516296,9.48148148 21.7777778,9.48148148 L20.0405926,9.48148148 C20.3640741,9.01907407 20.5555556,8.45766667 20.5555556,7.85185185 C20.5555556,6.27925926 19.2762963,5 17.7037037,5 C16.1311111,5 14.8518519,6.27925926 14.8518519,7.85185185 C14.8518519,8.45766667 15.0433333,9.01907407 15.3668148,9.48148148 L13.6296296,9.48148148 C12.9557778,9.48148148 12.4074074,10.0298519 12.4074074,10.7037037 C12.4074074,11.3775556 12.9557778,11.9259259 13.6296296,11.9259259 L14.6941852,11.9259259 L13.243,16.2786667 C13.2014444,16.4029259 13.2226296,16.5394074 13.2988148,16.6457407 C13.3754074,16.7516667 13.4984444,16.8148148 13.6296296,16.8148148 L14.8518519,16.8148148 L14.8518519,17.586037 C14.8518519,18.2036667 15.2902222,18.7406296 15.8715926,18.8351481 C15.9384074,18.8461481 16.0056296,18.8514444 16.072037,18.8514444 C16.3617037,18.8514444 16.6432222,18.75 16.8656667,18.5605556 C17.1394444,18.3279259 17.2962963,17.9885556 17.2962963,17.6296296 L17.2962963,16.8148148 L18.1111111,16.8148148 L18.1111111,17.6296296 C18.1111111,17.9885556 18.267963,18.3279259 18.5417407,18.560963 C18.7641852,18.75 19.0452963,18.8518519 19.3353704,18.8518519 C19.4017778,18.8518519 19.469,18.8465556 19.5358148,18.8355556 C20.1171852,18.7406296 20.5555556,18.2036667 20.5555556,17.586037 L20.5555556,16.8148148 L21.7777778,16.8148148 C21.9085556,16.8148148 22.0315926,16.7520741 22.1081852,16.6453333 C22.1847778,16.539 22.2055556,16.4025185 22.1644074,16.2782593 L20.7132222,11.9259259 L21.7777778,11.9259259 C22.4516296,11.9259259 23,11.3775556 23,10.7037037 Z M17.7037037,5.81481481 C18.8269259,5.81481481 19.7407407,6.72862963 19.7407407,7.85185185 C19.7407407,8.97507407 18.8269259,9.88888889 17.7037037,9.88888889 C16.5804815,9.88888889 15.6666667,8.97507407 15.6666667,7.85185185 C15.6666667,6.72862963 16.5804815,5.81481481 17.7037037,5.81481481 Z M19.7615185,11.6472593 L21.2127037,16 L20.1481481,16 C19.9232593,16 19.7407407,16.1825185 19.7407407,16.4074074 L19.7407407,17.586037 C19.7407407,17.8048148 19.5932593,18.0003704 19.4046296,18.0313333 C19.2815926,18.0508889 19.1622222,18.0191111 19.0693333,17.9400741 C18.9780741,17.8626667 18.9259259,17.7494074 18.9259259,17.6296296 L18.9259259,16.4074074 C18.9259259,16.1825185 18.7434074,16 18.5185185,16 L16.8888889,16 C16.664,16 16.4814815,16.1825185 16.4814815,16.4074074 L16.4814815,17.6296296 C16.4814815,17.7494074 16.4293333,17.8626667 16.3376667,17.9400741 C16.2447778,18.0187037 16.1258148,18.0504815 16.0023704,18.0313333 C15.8141481,18.0003704 15.6666667,17.8048148 15.6666667,17.586037 L15.6666667,16.4074074 C15.6666667,16.1825185 15.4841481,16 15.2592593,16 L14.1947037,16 L15.6458889,11.6472593 C15.6874444,11.523 15.6662593,11.3865185 15.5896667,11.2801852 C15.5130741,11.1738519 15.390037,11.1111111 15.2592593,11.1111111 L13.6296296,11.1111111 C13.4051481,11.1111111 13.2222222,10.9281852 13.2222222,10.7037037 C13.2222222,10.4792222 13.4051481,10.2962963 13.6296296,10.2962963 L16.2423333,10.2962963 C16.6705185,10.5533704 17.1691852,10.7037037 17.7037037,10.7037037 C18.2382222,10.7037037 18.7368889,10.5533704 19.1650741,10.2962963 L21.7777778,10.2962963 C22.0022593,10.2962963 22.1851852,10.4792222 22.1851852,10.7037037 C22.1851852,10.9281852 22.0022593,11.1111111 21.7777778,11.1111111 L20.1481481,11.1111111 C20.0173704,11.1111111 19.8943333,11.1738519 19.8177407,11.2805926 C19.7411481,11.3865185 19.7203704,11.523 19.7615185,11.6472593 Z" id="Shape" fill="#262626"></path>
    </g>
</svg>