<?xml version="1.0" encoding="UTF-8"?>
<svg width="24px" height="24px" viewBox="0 0 24 24" version="1.1" xmlns="http://www.w3.org/2000/svg" xmlns:xlink="http://www.w3.org/1999/xlink">
    <title>Primitives/Icons/iconShare</title>
    <g id="Primitives/Icons/iconShare" stroke="none" stroke-width="1" fill="none" fill-rule="evenodd">
        <path d="M20.5,14 C21.0522847,14 21.5,14.4477153 21.5,15 L21.5,15 L21.5,19 C21.5,20.6568542 20.1568542,22 18.5,22 L18.5,22 L5.5,22 C3.84314575,22 2.5,20.6568542 2.5,19 L2.5,19 L2.5,15 C2.5,14.4477153 2.94771525,14 3.5,14 C4.05228475,14 4.5,14.4477153 4.5,15 L4.5,15 L4.5,19 C4.5,19.5522847 4.94771525,20 5.5,20 L5.5,20 L18.5,20 C19.0522847,20 19.5,19.5522847 19.5,19 L19.5,19 L19.5,15 C19.5,14.4477153 19.9477153,14 20.5,14 Z M11.3217199,2.83626437 C11.7047816,2.48266896 12.2952184,2.48266896 12.6782801,2.83626437 L12.6782801,2.83626437 L19.1782801,8.83626437 C19.5841008,9.21086812 19.6094072,9.84352718 19.2348034,10.2493479 C18.8601997,10.6551687 18.2275406,10.680475 17.8217199,10.3058713 L17.8217199,10.3058713 L13,5.85506781 L13,15 C13,15.5128358 12.6139598,15.9355072 12.1166211,15.9932723 L12,16 C11.4477153,16 11,15.5522847 11,15 L11,15 L11,5.85306781 L6.1782801,10.3058713 C5.80367635,10.6516593 5.23579024,10.6566956 4.85600373,10.3362353 L4.76519656,10.2493479 C4.3905928,9.84352718 4.41589916,9.21086812 4.8217199,8.83626437 L4.8217199,8.83626437 Z" id="Combined-Shape" fill="#262626"></path>
    </g>
</svg>