<?xml version="1.0" encoding="UTF-8"?>
<svg width="24px" height="24px" viewBox="0 0 24 24" version="1.1" xmlns="http://www.w3.org/2000/svg" xmlns:xlink="http://www.w3.org/1999/xlink">
    <title>Primitives/Icons/iconInstant</title>
    <g id="Primitives/Icons/iconInstant" stroke="none" stroke-width="1" fill="none" fill-rule="evenodd">
        <path d="M15.877361,7.10636952 L21.8179201,7.96960084 C22.9553437,8.13488151 23.4036769,9.56350789 22.5711175,10.3696855 L18.2934546,14.5117995 L19.3015134,20.3549738 C19.4980343,21.4940999 18.3299284,22.3706756 17.3194384,21.8423722 L12,19.0612683 L6.68056159,21.8423722 C5.67007159,22.3706756 4.50196566,21.4940999 4.69848659,20.3549738 L5.7065454,14.5117995 L1.42888252,10.3696855 C0.596323148,9.56350789 1.04465634,8.13488151 2.18207987,7.96960084 L8.12263897,7.10636952 L10.7730589,1.76826496 C11.28166,0.743911681 12.71834,0.743911681 13.2269411,1.76826496 L15.877361,7.10636952 Z M14.5522498,8.93482078 L12,3.79443668 L9.44775021,8.93482078 L3.68668568,9.77196949 L7.85712014,13.8102529 L6.87864186,19.4819648 L12,16.8044211 L17.1213581,19.4819648 L16.1428799,13.8102529 L20.3133143,9.77196949 L14.5522498,8.93482078 Z" id="Combined-Shape" fill="#262626"></path>
    </g>
</svg>