<?xml version="1.0" encoding="UTF-8"?>
<svg width="24px" height="24px" viewBox="0 0 24 24" version="1.1" xmlns="http://www.w3.org/2000/svg" xmlns:xlink="http://www.w3.org/1999/xlink">
    <title>Primitives/Icons/Icon-Placeholder</title>
    <defs>
        <path d="M2.666,21.333 L2.666,24 L0,24 L0,21.333 L2.666,21.333 Z M8,21.333 L8,24 L5.333,24 L5.333,21.333 L8,21.333 Z M13.333,21.333 L13.333,24 L10.666,24 L10.666,21.333 L13.333,21.333 Z M18.666,21.333 L18.666,24 L15.999,24 L15.999,21.333 L18.666,21.333 Z M24,21.333 L24,24 L21.333,24 L21.333,21.333 L24,21.333 Z M2.666,15.999 L2.666,18.666 L0,18.666 L0,15.999 L2.666,15.999 Z M24,15.999 L24,18.666 L21.333,18.666 L21.333,15.999 L24,15.999 Z M13.3333333,6.66666667 L13.333,10.666 L17.3333333,10.6666667 L17.3333333,13.3333333 L13.333,13.333 L13.3333333,17.3333333 L10.6666667,17.3333333 L10.666,13.333 L6.66666667,13.3333333 L6.66666667,10.6666667 L10.666,10.666 L10.6666667,6.66666667 L13.3333333,6.66666667 Z M2.666,10.666 L2.666,13.333 L0,13.333 L0,10.666 L2.666,10.666 Z M24,10.666 L24,13.333 L21.333,13.333 L21.333,10.666 L24,10.666 Z M2.666,5.333 L2.666,8 L0,8 L0,5.333 L2.666,5.333 Z M24,5.333 L24,8 L21.333,8 L21.333,5.333 L24,5.333 Z M2.666,0 L2.666,2.666 L0,2.666 L0,0 L2.666,0 Z M24,0 L24,2.666 L21.333,2.666 L21.333,0 L24,0 Z M18.666,0 L18.666,2.666 L15.999,2.666 L15.999,0 L18.666,0 Z M13.333,0 L13.333,2.666 L10.666,2.666 L10.666,0 L13.333,0 Z M8,0 L8,2.666 L5.333,2.666 L5.333,0 L8,0 Z" id="path-1"></path>
    </defs>
    <g id="Primitives/Icons/Icon-Placeholder" stroke="none" stroke-width="1" fill="none" fill-rule="evenodd">
        <mask id="mask-2" fill="white">
            <use xlink:href="#path-1"></use>
        </mask>
        <use id="_placeholder" fill="#262626" xlink:href="#path-1"></use>
    </g>
</svg>