<?xml version="1.0" encoding="UTF-8"?>
<svg width="24px" height="24px" viewBox="0 0 24 24" version="1.1" xmlns="http://www.w3.org/2000/svg" xmlns:xlink="http://www.w3.org/1999/xlink">
    <title>Components/Misc/IdVerified</title>
    <defs>
        <radialGradient cx="79.1709685%" cy="84.8211301%" fx="79.1709685%" fy="84.8211301%" r="89.5278704%" id="radialGradient-1">
            <stop stop-color="#00EAAC" offset="0%"></stop>
            <stop stop-color="#00EAAE" offset="0%"></stop>
            <stop stop-color="#00DEEB" offset="100%"></stop>
        </radialGradient>
    </defs>
    <g id="Components/Misc/IdVerified" stroke="none" stroke-width="1" fill="none" fill-rule="evenodd">
        <polygon id="Fill-1" fill="url(#radialGradient-1)" points="11.9999628 0 8.48904722 3.52386356 3.51471067 3.51471067 3.52386356 8.48904722 0 11.9999628 3.52386356 15.5109528 3.51471067 20.4852893 8.48904722 20.4761364 11.9999628 24 15.5109528 20.4761364 20.4852893 20.4852893 20.4761364 15.5109528 24 11.9999628 20.4761364 8.48904722 20.4852893 3.51471067 15.5109528 3.52386356"></polygon>
        <g id="Group" transform="translate(8.000000, 6.000000)" fill="#FFFFFF">
            <path d="M7.19724058,0.669887279 L4.80872834,0.669887279 C4.71621313,0.286022732 4.37158673,0 3.96153846,0 C3.5514902,0 3.20686379,0.286022732 3.11434858,0.669887279 L0.77711839,0.669887279 C0.348607772,0.669887279 0,1.02017915 0,1.45075986 L0,11.0709793 C0,11.50156 0.348607772,11.8518519 0.77711839,11.8518519 L7.19724058,11.8518519 C7.6257512,11.8518519 7.97435897,11.50156 7.97435897,11.0709793 L7.97435897,1.45075986 C7.97435897,1.02017915 7.6257512,0.669887279 7.19724058,0.669887279 Z M3.96153846,0.412238325 C4.21603315,0.412238325 4.42307692,0.620282306 4.42307692,0.876006441 C4.42307692,1.13173058 4.21603315,1.33977456 3.96153846,1.33977456 C3.70704377,1.33977456 3.5,1.13173058 3.5,0.876006441 C3.5,0.620282306 3.70704377,0.412238325 3.96153846,0.412238325 Z M7.56410256,11.0709793 C7.56410256,11.2742427 7.39952674,11.4396135 7.19724058,11.4396135 L0.77711839,11.4396135 C0.574832231,11.4396135 0.41025641,11.2742427 0.41025641,11.0709793 L0.41025641,1.45075986 C0.41025641,1.24749648 0.574832231,1.0821256 0.77711839,1.0821256 L3.11434858,1.0821256 C3.20686379,1.46599015 3.5514902,1.75201288 3.96153846,1.75201288 C4.37158673,1.75201288 4.71621313,1.46599015 4.80872834,1.0821256 L7.19724058,1.0821256 C7.39952674,1.0821256 7.56410256,1.24749648 7.56410256,1.45075986 L7.56410256,11.0709793 Z" id="Shape" stroke="#FFFFFF" stroke-width="0.2"></path>
            <path d="M5.33333333,8 C6.25380792,8 7,8.74619208 7,9.66666667 L7,9.66666667 L7,10.3333333 C7,10.5174282 6.85076158,10.6666667 6.66666667,10.6666667 C6.48257175,10.6666667 6.33333333,10.5174282 6.33333333,10.3333333 L6.33333333,10.3333333 L6.33333333,9.66666667 C6.33333333,9.11438192 5.88561808,8.66666667 5.33333333,8.66666667 L5.33333333,8.66666667 L2.66666667,8.66666667 C2.11438192,8.66666667 1.66666667,9.11438192 1.66666667,9.66666667 L1.66666667,9.66666667 L1.66666667,10.3333333 C1.66666667,10.5174282 1.51742825,10.6666667 1.33333333,10.6666667 C1.14923842,10.6666667 1,10.5174282 1,10.3333333 L1,10.3333333 L1,9.66666667 C1,8.74619208 1.74619208,8 2.66666667,8 L2.66666667,8 Z M4,4 C4.92047458,4 5.66666667,4.74619208 5.66666667,5.66666667 C5.66666667,6.58714125 4.92047458,7.33333333 4,7.33333333 C3.07952542,7.33333333 2.33333333,6.58714125 2.33333333,5.66666667 C2.33333333,4.74619208 3.07952542,4 4,4 Z M4,4.66666667 C3.44771525,4.66666667 3,5.11438192 3,5.66666667 C3,6.21895142 3.44771525,6.66666667 4,6.66666667 C4.55228475,6.66666667 5,6.21895142 5,5.66666667 C5,5.11438192 4.55228475,4.66666667 4,4.66666667 Z" id="Combined-Shape"></path>
        </g>
    </g>
</svg>