<?xml version="1.0" encoding="UTF-8"?>
<svg width="24px" height="24px" viewBox="0 0 24 24" version="1.1" xmlns="http://www.w3.org/2000/svg" xmlns:xlink="http://www.w3.org/1999/xlink">
    <title>Primitives/Icons/Interests-IconGardening</title>
    <g id="Primitives/Icons/Interests-IconGardening" stroke="none" stroke-width="1" fill="none" fill-rule="evenodd">
        <path d="M22.0863934,11.227377 L21.3801639,10.7011475 C21.3570753,10.6750219 21.3308052,10.6518911 21.3019672,10.6322951 C21.184918,10.5540984 18.4003279,8.74278689 15.3747541,10.6254098 C14.492459,11.1742623 13.7886885,11.9670492 13.232459,12.8144262 C13.6160656,11.6242623 14.1211475,10.3755738 14.7772131,9.30540984 C17.4131606,8.5913256 19.5956963,6.74320633 20.7344262,4.26098361 L20.8091803,4.09819672 C20.8749627,3.95568277 20.8497435,3.78770394 20.7450123,3.67078974 C20.6402811,3.55387554 20.4760784,3.51039756 20.3272131,3.56016393 C20.2288525,3.59360656 17.8327869,4.41737705 15.0403279,7.60868852 C13.6327869,9.21688525 12.7288525,11.5795082 12.1770492,13.5663934 L12.1618033,8.92081967 L12.1618033,8.76196721 L12.1337705,0.393442623 C12.1332624,0.20715108 12.0021718,0.0467507396 11.8197107,0.00916422978 C11.6372496,-0.0284222801 11.4534378,0.067108968 11.3793443,0.238032787 L9.90393443,3.63934426 C9.86719461,3.72452304 9.86145229,3.81988034 9.88770492,3.90885246 L11.3744262,8.8804918 L11.3852459,12.117541 C10.864918,9.47409836 10.1001639,6.65016393 9.10918033,5.79590164 C7.13409836,4.09131148 5.44721311,3.26409836 3.95213115,3.26409836 C2.40196721,3.26409836 0.320655738,4.56540984 0.232622951,4.62295082 C0.0910956714,4.71214511 0.0214465276,4.88108166 0.0589902392,5.04410333 C0.0965339509,5.20712499 0.233059874,5.32857965 0.399344262,5.34688525 L1.90180328,5.51360656 C3.50737334,5.69196981 5.07702824,6.11057761 6.55819672,6.75540984 L6.92852459,6.91672131 L9.73180328,8.69065574 C10.1557377,10.0352459 10.5216393,11.7472131 10.8083607,13.3559016 C10.2304918,12.3172131 9.43721311,11.2962295 8.36360656,10.6288525 C5.33803279,8.74672131 2.55344262,10.557541 2.43639344,10.6352459 C2.40737705,10.654918 1.6495082,11.2303279 1.6495082,11.2303279 C0.599276279,12.008956 0.0202101714,13.2706188 0.114590164,14.5745902 L0.36295082,18.1357377 C0.37630472,18.3278684 0.526780317,18.4820903 0.71852459,18.5001639 C0.730819672,18.5001639 0.743114754,18.5001639 0.755901639,18.5001639 C0.868523652,18.4987553 0.975037507,18.4487261 1.04803279,18.3629508 L1.05147541,18.3659016 L2.37245902,16.8604918 C3.62069939,15.4332963 4.53367171,13.74481 5.04442623,11.9188525 L5.42016393,10.5659016 C6.18147541,10.5609836 7.05098361,10.7385246 7.94606557,11.2952459 C10.1311475,12.6511475 11.0655738,15.8006557 11.3331148,16.9180328 L7.46803279,16.9180328 C7.25074043,16.9180328 7.07459016,17.094183 7.07459016,17.3114754 C7.07459016,19.8063934 7.65295082,22.1763934 8.66163934,23.8131148 C8.73353977,23.928913 8.86025308,23.999017 8.99655738,23.999017 L14.5952459,23.999017 C14.7319203,23.999017 14.8589017,23.9284552 14.9306557,23.8121311 C15.9388525,22.1754098 16.5172131,19.8059016 16.5172131,17.3104918 C16.5172131,17.0931994 16.3410629,16.9170492 16.1237705,16.9170492 L12.2990164,16.9170492 C12.6221311,15.7318033 13.6455738,12.6280328 15.7908197,11.2932787 C16.6859016,10.7360656 17.5554098,10.5585246 18.3167213,10.5639344 L18.692459,11.9163934 C19.2025967,13.7426452 20.1154487,15.4313878 21.3639344,16.8585246 L22.6844262,18.3644262 L22.6878689,18.3614754 C22.7607837,18.4473559 22.8673484,18.497409 22.98,18.4986885 C22.9927869,18.4986885 23.0045902,18.4986885 23.0178689,18.4986885 C23.2094206,18.4803887 23.3596317,18.3262247 23.3729508,18.1342623 L23.6218033,14.5731148 C23.7155074,13.2691539 23.136366,12.0077311 22.0863934,11.2288525 L22.0863934,11.227377 Z M14.1098361,18.8429508 L14.8854098,18.9791803 C14.8691803,19.0706557 14.4855738,21.2277049 13.8255738,22.3514754 L13.1468852,21.952623 C13.735082,20.9508197 14.1063934,18.8640984 14.1098361,18.8429508 Z" id="Gardening" fill="#262626"></path>
    </g>
</svg>