<?xml version="1.0" encoding="UTF-8"?>
<svg width="24px" height="24px" viewBox="0 0 24 24" version="1.1" xmlns="http://www.w3.org/2000/svg" xmlns:xlink="http://www.w3.org/1999/xlink">
    <title>Primitives/Icons/Interests-IconGaming</title>
    <g id="Primitives/Icons/Interests-IconGaming" stroke="none" stroke-width="1" fill="none" fill-rule="evenodd">
        <path d="M23.9867268,14.9006894 C23.9271955,13.5258457 23.688133,12.0010019 23.3304768,10.5661582 C22.9686018,9.19131441 22.5223518,7.90600191 21.9842268,6.91928316 C19.8917268,3.24240816 17.6196955,3.81193941 14.8995393,4.52772066 C14.0323518,4.73725191 13.1061018,4.97631441 12.149383,5.06584566 L11.8503205,5.06584566 C10.8936018,4.97631441 9.96735176,4.73772066 9.10016426,4.52772066 C6.38000801,3.84053316 4.10797676,3.24240816 2.01547676,6.94928316 C1.47735176,7.93365816 0.99922676,9.22131441 0.67016426,10.5961582 C0.31157051,12.0310019 0.0725080099,13.5553769 0.0129767599,14.9306894 C-0.0470232401,16.4550644 0.10250801,17.5613144 0.43110176,18.3385019 C0.76016426,19.0572519 1.23844551,19.5056894 1.86594551,19.6838144 C2.43407051,19.8333457 3.09172676,19.7733457 3.77938301,19.4742832 C4.94516426,18.9961582 6.29047676,17.9799082 7.60578926,16.7555332 C8.53110176,15.8588144 10.2654768,15.4088144 11.9998518,15.4088144 C13.7342268,15.4088144 15.4686018,15.8574082 16.3939143,16.7541269 C17.7092268,17.9799082 19.0545393,18.9961582 20.2203205,19.4728769 C20.9079768,19.7419394 21.565633,19.8319394 22.133758,19.6824082 C22.7314143,19.5028769 23.2395393,19.0842832 23.5686018,18.3070957 C23.8971955,17.5613144 24.0467268,16.4550644 23.9867268,14.9006894 Z M9.24969551,11.5228769 C8.96956127,11.8253118 8.58313666,12.0074354 8.17157051,12.0310019 C8.14157051,12.4495957 7.93250801,12.8081894 7.66344551,13.1091269 C7.33653385,13.4315473 6.89680954,13.6138269 6.43766426,13.6172519 C5.97711638,13.6215831 5.53467816,13.4381084 5.21235176,13.1091269 C4.90991683,12.8289927 4.72779324,12.4425681 4.70422676,12.0310019 C4.28526223,12.0066904 3.8908856,11.825237 3.59985176,11.5228769 C3.27811809,11.1956647 3.0965261,10.7559767 3.09360176,10.2970957 C3.08877772,9.83682329 3.27155895,9.39442501 3.59985176,9.07178316 L3.62985176,9.04178316 C3.92891426,8.77272066 4.28610176,8.59318941 4.70797676,8.56365816 C4.74467505,8.1555421 4.92468611,7.77359982 5.21610176,7.48553316 C5.54289737,7.16322541 5.9824316,6.9809549 6.44141426,6.97740816 C6.90215604,6.97278557 7.34484919,7.15629585 7.66719551,7.48553316 L7.69719551,7.51553316 C7.97322945,7.7981802 8.14227552,8.16809279 8.17532051,8.56178316 C8.59391426,8.59131441 8.95250801,8.80084566 9.25344551,9.06990816 C9.57583731,9.396648 9.75812262,9.83621793 9.76157051,10.2952207 C9.76572211,10.7571643 9.5807834,11.2007124 9.24969551,11.5228769 Z M15.0786018,11.3433457 C14.6554331,11.3433457 14.2739324,11.088435 14.1119928,10.6974782 C13.9500532,10.3065214 14.0395659,9.8565106 14.3387913,9.55728519 C14.6380167,9.25805979 15.0880275,9.16854708 15.4789843,9.3304867 C15.8699411,9.49242632 16.1248518,9.87392704 16.1248518,10.2970957 C16.1248518,10.8749236 15.6564297,11.3433457 15.0786018,11.3433457 Z M17.2029768,13.4681894 C16.6251488,13.4681894 16.1567268,12.9997673 16.1567268,12.4219394 C16.1567268,11.8441115 16.6251488,11.3756894 17.2029768,11.3756894 C17.7808047,11.3756894 18.2492268,11.8441115 18.2492268,12.4219394 C18.2492268,12.9997673 17.7808047,13.4681894 17.2029768,13.4681894 L17.2029768,13.4681894 Z M17.2029768,9.22365816 C16.6251488,9.22365816 16.1567268,8.75523608 16.1567268,8.17740816 C16.1567268,7.59958024 16.6251488,7.13115816 17.2029768,7.13115816 C17.7808047,7.13115816 18.2492268,7.59958024 18.2492268,8.17740816 C18.247677,8.75421341 17.779784,9.22105819 17.2029768,9.22131441 L17.2029768,9.22365816 Z M19.3254768,11.3456894 C18.7476488,11.3456894 18.2792268,10.8772673 18.2792268,10.2994394 C18.2792268,9.72161149 18.7476488,9.25318941 19.3254768,9.25318941 C19.9033047,9.25318941 20.3717268,9.72161149 20.3717268,10.2994394 C20.3704337,10.8770845 19.9012474,11.3443823 19.3236018,11.3433457 L19.3254768,11.3456894 Z M8.50250801,9.84897066 C8.68702025,10.0285833 8.74322002,10.302618 8.64429957,10.5403578 C8.54537913,10.7780976 8.31137707,10.931383 8.05391426,10.9270957 L7.63532051,10.9270957 C7.48473058,10.9269712 7.34027264,10.9867376 7.23378944,11.0932208 C7.12730624,11.199704 7.06753975,11.344162 7.06766426,11.4947519 L7.06766426,11.8833457 C7.07390581,12.1117599 6.95561438,12.3255459 6.7587766,12.4415929 C6.56193881,12.5576399 6.31760846,12.5576399 6.12077067,12.4415929 C5.92393289,12.3255459 5.80564146,12.1117599 5.81188301,11.8833457 L5.81188301,11.4647519 C5.81200752,11.314162 5.75224103,11.169704 5.64575783,11.0632208 C5.53927463,10.9567376 5.39481669,10.8969712 5.24422676,10.8970957 L4.82797676,10.8970957 C4.57742823,10.9031486 4.34841917,10.7561043 4.24965711,10.5257627 C4.15089504,10.2954211 4.20226526,10.0281604 4.37938301,9.85084566 L4.40938301,9.82084566 C4.52949414,9.72781378 4.67610645,9.67544051 4.82797676,9.67131441 L5.24657051,9.67131441 C5.39720408,9.67081815 5.54146387,9.61047063 5.6475821,9.50356113 C5.75370033,9.39665163 5.81297452,9.25194752 5.81235176,9.10131441 L5.81235176,8.68318941 C5.81410189,8.42863273 5.9678852,8.19978919 6.2029145,8.10199656 C6.4379438,8.00420394 6.70867009,8.05641457 6.89047676,8.23459566 L6.92047676,8.26459566 C7.01350864,8.38470679 7.06588191,8.53131911 7.07000801,8.68318941 L7.07000801,9.10131441 C7.06938512,9.2518666 7.12859504,9.39649986 7.23461197,9.50339588 C7.34062891,9.61029189 7.48476831,9.67069409 7.63532051,9.67131441 L8.05391426,9.67131441 C8.22151947,9.66629167 8.3837881,9.7305548 8.50250801,9.84897066 Z M8.50250801,9.84897066 C8.68702025,10.0285833 8.74322002,10.302618 8.64429957,10.5403578 C8.54537913,10.7780976 8.31137707,10.931383 8.05391426,10.9270957 L7.63532051,10.9270957 C7.48473058,10.9269712 7.34027264,10.9867376 7.23378944,11.0932208 C7.12730624,11.199704 7.06753975,11.344162 7.06766426,11.4947519 L7.06766426,11.8833457 C7.07390581,12.1117599 6.95561438,12.3255459 6.7587766,12.4415929 C6.56193881,12.5576399 6.31760846,12.5576399 6.12077067,12.4415929 C5.92393289,12.3255459 5.80564146,12.1117599 5.81188301,11.8833457 L5.81188301,11.4647519 C5.81200752,11.314162 5.75224103,11.169704 5.64575783,11.0632208 C5.53927463,10.9567376 5.39481669,10.8969712 5.24422676,10.8970957 L4.82797676,10.8970957 C4.57742823,10.9031486 4.34841917,10.7561043 4.24965711,10.5257627 C4.15089504,10.2954211 4.20226526,10.0281604 4.37938301,9.85084566 L4.40938301,9.82084566 C4.52949414,9.72781378 4.67610645,9.67544051 4.82797676,9.67131441 L5.24657051,9.67131441 C5.39720408,9.67081815 5.54146387,9.61047063 5.6475821,9.50356113 C5.75370033,9.39665163 5.81297452,9.25194752 5.81235176,9.10131441 L5.81235176,8.68318941 C5.81410189,8.42863273 5.9678852,8.19978919 6.2029145,8.10199656 C6.4379438,8.00420394 6.70867009,8.05641457 6.89047676,8.23459566 L6.92047676,8.26459566 C7.01350864,8.38470679 7.06588191,8.53131911 7.07000801,8.68318941 L7.07000801,9.10131441 C7.06938512,9.2518666 7.12859504,9.39649986 7.23461197,9.50339588 C7.34062891,9.61029189 7.48476831,9.67069409 7.63532051,9.67131441 L8.05391426,9.67131441 C8.22151947,9.66629167 8.3837881,9.7305548 8.50250801,9.84897066 Z M8.50250801,9.84053316 C8.68636301,10.019556 8.74282982,10.2924154 8.64512846,10.5297049 C8.5474271,10.7669943 8.31520731,10.9209901 8.05860176,10.9186582 L7.64000801,10.9186582 C7.48929285,10.9191541 7.34496169,10.979566 7.23882996,11.0865771 C7.13269822,11.1935881 7.07347921,11.3384128 7.07422676,11.4891269 L7.07422676,11.8777207 C7.07514784,12.1019606 6.95636834,12.3096583 6.76263136,12.422576 C6.56889437,12.5354936 6.32963316,12.5364764 6.13497511,12.4251541 C5.94031705,12.3138318 5.81983534,12.1071169 5.81891426,11.8828769 L5.81891426,11.4642832 C5.81854255,11.313611 5.75823481,11.1692786 5.65129815,11.0631334 C5.5443615,10.9569882 5.39958506,10.8977543 5.24891426,10.8985019 L4.83032051,10.8985019 C4.58129956,10.9048331 4.35323687,10.7597583 4.25342472,10.5315281 C4.15361257,10.3032978 4.20192485,10.0373557 4.37563301,9.85881441 L4.40516426,9.82881441 C4.52493999,9.73531429 4.67140882,9.68244101 4.82328926,9.67787691 L5.24141426,9.67787691 C5.39208645,9.6775052 5.53641887,9.61719746 5.64256405,9.5102608 C5.74870923,9.40332415 5.80794311,9.25854771 5.80719551,9.10787691 L5.80719551,8.68928316 C5.80914649,8.43578469 5.96175843,8.20776055 6.19536396,8.10930376 C6.42896949,8.01084698 6.6987578,8.0608438 6.88157051,8.23647066 L6.91157051,8.26647066 C7.00500599,8.3861023 7.05787746,8.53240192 7.06250801,8.68412691 L7.06250801,9.10272066 C7.06287972,9.25339286 7.12318746,9.39772527 7.23012412,9.50387045 C7.33706077,9.61001564 7.48183721,9.66924951 7.63250801,9.66850191 L8.05110176,9.66850191 C8.21820349,9.66173077 8.3807441,9.72393349 8.50063301,9.84053316 L8.50250801,9.84053316 Z" id="Gaming" fill="#262626"></path>
    </g>
</svg>