<?xml version="1.0" encoding="UTF-8"?>
<svg width="24px" height="24px" viewBox="0 0 24 24" version="1.1" xmlns="http://www.w3.org/2000/svg" xmlns:xlink="http://www.w3.org/1999/xlink">
    <title>Primitives/Icons/Interests-IconVolunteering</title>
    <g id="Primitives/Icons/Interests-IconVolunteering" stroke="none" stroke-width="1" fill="none" fill-rule="evenodd">
        <path d="M2.203125,14.15625 C2.76256603,14.15625 3.29909382,14.3784871 3.69467837,14.7740716 C4.09026291,15.1696562 4.3125,15.706184 4.3125,16.265625 L4.3125,16.265625 L4.3125,21.890625 C4.31120833,23.0550652 3.3675652,23.9987083 2.203125,24 L2.203125,24 L0.703125,24 C0.314799785,24 -4.4408921e-16,23.6852002 -4.4408921e-16,23.296875 L-4.4408921e-16,23.296875 L-4.4408921e-16,14.859375 C-4.4408921e-16,14.4710498 0.314799785,14.15625 0.703125,14.15625 L0.703125,14.15625 Z M5.71875,14.775 C7.5609375,13.4953125 10.0640625,13.59375 11.7796875,15.0984375 C12.1249793,15.3935006 12.5630221,15.5577666 13.0171875,15.5625 L13.0171875,15.5625 L15.5625,15.5625 C16.3336917,15.5624614 16.9610381,16.1835344 16.96875,16.9546875 L16.96875,16.9546875 L16.96875,16.96875 C16.9664333,17.7444388 16.3381888,18.3726833 15.5625,18.375 L15.5625,18.375 L11.2734375,18.375 C10.8851123,18.375 10.5703125,18.6897998 10.5703125,19.078125 C10.5703125,19.4664502 10.8851123,19.78125 11.2734375,19.78125 L11.2734375,19.78125 L16.7296875,19.78125 C17.3176679,19.7856194 17.8798869,19.5402875 18.2765625,19.10625 L18.2765625,19.10625 L18.375,18.99375 L21.5671875,15.309375 C22.0757813,14.7585937 22.95,14.7159375 23.465625,15.16875 C23.5944293,15.2647296 23.7041307,15.3839702 23.7890625,15.5203125 C24.1078125,15.9984375 24.0707813,16.8848437 23.578125,17.53125 L23.578125,17.53125 L20.203125,22.03125 C19.2729286,23.2697934 17.8145775,23.9989689 16.265625,24 L16.265625,24 L9.99375,24 C8.54944625,23.9988455 7.11175595,23.8049465 5.71875,23.4234375 L5.71875,23.4234375 Z M15.8095313,-0.000112074203 C16.9731138,-0.0086794554 18.0833993,0.487136363 18.8535938,1.359375 C19.59375,2.1909375 20.0010938,3.3028125 20.0010938,4.49015625 C20.0010938,6.57890625 18.6520313,8.1375 17.1989063,9.5109375 C16.4489063,10.2182812 15.585,10.948125 14.5846875,11.791875 C14.0090625,12.2779687 13.41375,12.78 12.7814063,13.3284375 C12.5171116,13.5575354 12.1246072,13.5575354 11.8603125,13.3284375 C11.2289063,12.78 10.6326563,12.2775 10.0570313,11.791875 C8.499375,10.4770312 7.15359375,9.34171875 6.21609375,8.236875 C5.14125,6.97078125 4.640625,5.78015625 4.640625,4.49015625 C4.640625,3.3028125 5.0484375,2.1909375 5.788125,1.359375 C6.55843172,0.487289171 7.66864378,-0.00849385384 8.8321875,-0.000112074203 C10.153125,-0.000112074203 11.296875,0.624375 12.1425,1.805625 C12.20625,1.89421875 12.2653125,1.9828125 12.3210938,2.07046875 C12.3764063,1.9828125 12.4359375,1.89421875 12.4992188,1.805625 C13.344375,0.624375 14.4890625,-0.000112074203 15.8095313,-0.000112074203 Z" id="Combined-Shape" fill="#262626"></path>
    </g>
</svg>