<?xml version="1.0" encoding="UTF-8"?>
<svg width="24px" height="24px" viewBox="0 0 24 24" version="1.1" xmlns="http://www.w3.org/2000/svg" xmlns:xlink="http://www.w3.org/1999/xlink">
    <title>Primitives/Icons/Interests-IconMovies</title>
    <g id="Primitives/Icons/Interests-IconMovies" stroke="none" stroke-width="1" fill="none" fill-rule="evenodd">
        <path d="M10.9418405,11.2760736 C11.8281747,11.8614302 12.868139,12.1709088 13.9303067,12.1653988 C14.7900161,12.1598359 15.6364853,11.953093 16.4019632,11.5617178 C17.0630675,11.9352147 17.5214724,12.6826994 17.5519018,13.4871166 L17.5519018,13.4871166 L17.5519018,20.4996319 C17.5470562,21.7834484 16.5073758,22.8229097 15.2235583,22.8274847 L15.2235583,22.8274847 L3.41202454,22.8274847 C2.12828745,22.822908 1.08874843,21.783369 1.08417178,20.4996319 L1.08417178,20.4996319 L1.08417178,13.488589 C1.09091805,12.6938053 1.51697102,11.9616959 2.20466258,11.5631902 C2.96518826,11.9677164 3.81494202,12.1752615 4.67631902,12.1668712 C5.73878021,12.1718652 6.77889125,11.8618813 7.66527607,11.2760736 L7.66527607,11.2760736 Z M22.4662577,12.4255215 C22.6902658,12.2892905 22.9596745,12.2489434 23.213764,12.3135737 C23.4678535,12.3782041 23.6852414,12.5423729 23.8169325,12.7690798 C23.9317791,12.9123926 23.9607362,13.0851534 23.9607362,13.2574233 L23.9607362,13.2574233 L23.9317791,17.0507975 L23.9317791,20.9001227 C23.9340267,21.1599689 23.8317963,21.409826 23.6480504,21.5935718 C23.4643045,21.7773177 23.2144474,21.8795482 22.9546012,21.8773006 C22.7587209,21.8828458 22.5665562,21.8231073 22.4083436,21.7074847 L22.4083436,21.7074847 L19.1892025,19.8390184 C19.1607362,19.8390184 19.1607362,19.8105521 19.1317791,19.8105521 L19.1317791,19.8105521 L18.3558282,19.3506748 L18.3558282,14.809816 L19.190184,14.3190184 Z M2.90521111,2.40095745 C4.6342762,1.68459409 6.62461479,2.08035989 7.94809772,3.40370243 C9.27158064,4.72704498 9.66755756,6.71734158 8.9513776,8.44648265 C8.23519765,10.1756237 6.54790726,11.3030675 4.67631902,11.3030675 C2.11877301,11.3030675 0.0206134969,9.23386503 0.0490797546,6.67631902 C0.0487934734,4.80473079 1.17614602,3.11732082 2.90521111,2.40095745 Z M12.159803,2.40091051 C13.8889284,1.68457591 15.8793055,2.08043167 17.2027498,3.40387599 C18.5261941,4.7273203 18.9220499,6.71769741 18.2057153,8.44682276 C17.4893807,10.1759481 15.8019396,11.303266 13.9303067,11.3030684 C12.7029772,11.3038494 11.5256913,10.8166409 10.6578381,9.94878768 C9.78998488,9.08093447 9.30277638,7.90364854 9.30355734,6.67631902 C9.30335977,4.80468613 10.4306777,3.11724511 12.159803,2.40091051 Z M4.67631902,4.7793865 C3.61325153,4.7793865 2.75092025,5.61276074 2.7793865,6.67631902 C2.7793865,7.72396592 3.62867212,8.57325153 4.67631902,8.57325153 C5.72396592,8.57325153 6.57325153,7.72396592 6.57325153,6.67631902 C6.57325153,5.62867212 5.72396592,4.7793865 4.67631902,4.7793865 Z M13.9303067,4.77938593 C13.4271342,4.77899527 12.9444651,4.97874014 12.5887143,5.33458297 C12.2329636,5.69042581 12.0333436,6.17314662 12.033864,6.67631902 C12.033864,7.44360126 12.4960909,8.13532272 13.2049863,8.42890305 C13.9138817,8.72248338 14.7298247,8.56009991 15.2723049,8.01747924 C15.8147852,7.47485858 15.9769575,6.65887359 15.6831938,5.95005423 C15.38943,5.24123487 14.697589,4.77918798 13.9303067,4.77938593 Z" id="Combined-Shape" fill="#262626"></path>
    </g>
</svg>