<?xml version="1.0" encoding="UTF-8"?>
<svg width="24px" height="24px" viewBox="0 0 24 24" version="1.1" xmlns="http://www.w3.org/2000/svg" xmlns:xlink="http://www.w3.org/1999/xlink">
    <title>Primitives/Icons/Marriage</title>
    <g id="Primitives/Icons/Marriage" stroke="none" stroke-width="1" fill="none" fill-rule="evenodd">
        <path d="M17.7126094,7.79505208 L20.25,4.75 L18.4166667,2 L12.9166667,2 L11.0833333,4.75 L13.620724,7.79505208 C10.5674792,8.68129688 8.33333333,11.4940885 8.33333333,14.8333333 C8.33333333,16.4566354 8.86729167,17.9516615 9.76001042,19.1665313 C10.3588802,18.9685885 10.9004583,18.6565208 11.3619427,18.246599 C10.6158333,17.3077031 10.1666667,16.1229115 10.1666667,14.8333333 C10.1666667,13.213125 10.8751927,11.7588333 11.9936979,10.7513594 C13.1171875,11.757974 13.8333333,13.2095156 13.8333333,14.8333333 C13.8333333,17.8660104 11.3660104,20.3333333 8.33333333,20.3333333 C5.30065625,20.3333333 2.83333333,17.8660104 2.83333333,14.8333333 C2.83333333,11.8006563 5.30065625,9.33333333 8.33333333,9.33333333 C8.71134375,9.33333333 9.08058854,9.37183333 9.43757292,9.44482292 C9.90576042,8.90341667 10.4424115,8.42508854 11.0352083,8.0204375 C10.1981771,7.68820313 9.2885,7.5 8.33333333,7.5 C4.28332812,7.5 1,10.7832708 1,14.8333333 C1,18.8833958 4.28332812,22.1666667 8.33333333,22.1666667 C9.67183854,22.1666667 10.9226302,21.8021771 12.0028646,21.17575 C13.0810938,21.8020625 14.3297083,22.1666667 15.6666667,22.1666667 C19.7166719,22.1666667 23,18.8833958 23,14.8333333 C23,11.4940885 20.7658542,8.68129688 17.7126094,7.79505208 Z M16.9161406,7.31872917 L17.5246354,5.66666667 L18.2926875,5.66666667 L16.9161406,7.31872917 Z M18.3200156,3.50757292 L19.1075469,4.68892708 L19.0567865,4.75 L17.8623698,4.75 L18.3200156,3.50757292 Z M17.5615313,2.91666667 L17.1150573,4.12798437 L16.4363229,2.91666667 L17.5615313,2.91666667 Z M16.5481562,5.66666667 L15.8689635,7.51019792 C15.8011875,7.50836458 15.734901,7.5 15.6666667,7.5 C15.5984323,7.5 15.532375,7.50836458 15.4648281,7.51019792 L14.7862656,5.66666667 L16.5481562,5.66666667 Z M15.66575,3.41705208 L16.4123177,4.75 L14.9141979,4.75 L15.66575,3.41705208 Z M14.8952344,2.91666667 L14.216901,4.11984896 L13.7742656,2.91666667 L14.8952344,2.91666667 Z M12.2258437,4.68892708 L13.0142917,3.50608333 L13.4718802,4.75 L12.2766042,4.75 L12.2258437,4.68892708 Z M13.0407031,5.66666667 L13.8092135,5.66666667 L14.4173073,7.31867188 L13.0407031,5.66666667 Z M15.6666667,20.3333333 C14.9373438,20.3333333 14.2466927,20.1786458 13.6100104,19.9183125 C14.8811406,18.5995729 15.6666667,16.8095521 15.6666667,14.8333333 C15.6666667,12.8509271 14.8715156,11.0613073 13.5923073,9.74251042 C14.233,9.48045833 14.9325885,9.33333333 15.6666667,9.33333333 C18.6993437,9.33333333 21.1666667,11.8006563 21.1666667,14.8333333 C21.1666667,17.8660104 18.6993438,20.3333333 15.6666667,20.3333333 Z" id="Shape" fill="#000000" fill-rule="nonzero"></path>
    </g>
</svg>