<?xml version="1.0" encoding="UTF-8"?>
<svg width="24px" height="24px" viewBox="0 0 24 24" version="1.1" xmlns="http://www.w3.org/2000/svg" xmlns:xlink="http://www.w3.org/1999/xlink">
    <title>Primitives/Icons/Prays</title>
    <g id="Primitives/Icons/Prays" stroke="none" stroke-width="1" fill="none" fill-rule="evenodd">
        <path d="M22.6396211,16.5776758 L20.1567148,15.357707 C19.4986055,15.02775 19.0897578,14.3656016 19.0897578,13.6292031 L19.0897578,10.3347461 C19.0897578,9.63792188 18.9250586,8.94019531 18.6142656,8.31865234 L15.5949375,2.23715625 C15.213418,1.47407422 14.4464258,1.00004297 13.5933242,1.00004297 C12.9702773,1.00004297 12.4060977,1.25622266 11.999957,1.66850781 C11.5938164,1.25622266 11.0296367,1.00004297 10.4065898,1.00004297 C9.55348828,1.00004297 8.78649609,1.47407422 8.40411719,2.23874609 L5.38646484,8.31701953 C5.07485547,8.94023828 4.91015625,9.63796484 4.91015625,10.3347461 L4.91015625,13.6292031 C4.91015625,14.3656016 4.50130859,15.02775 3.84315625,15.357707 L1.36037891,16.5777188 C1.03862891,16.7358008 0.907789062,17.1263438 1.06909375,17.446332 L3.6901875,22.6455078 C3.85123437,22.9649805 4.24083203,23.0908789 4.55746875,22.9300898 L10.1505391,20.0905859 C10.9042969,19.71375 11.5492148,19.1286445 12.000043,18.3778516 C12.4533633,19.1327266 13.1001719,19.7159414 13.8460234,20.0887813 L19.4426172,22.9300469 C19.7598555,23.0911367 20.1490234,22.9645508 20.3099414,22.6454648 L22.9310352,17.4462891 C23.0922969,17.1261719 22.9611562,16.7357578 22.6396211,16.5776758 Z M11.3554687,16.0551758 C11.3554687,17.2836953 10.6728672,18.388207 9.57050391,18.9393672 L4.55025,21.4880586 L2.51327344,17.4474922 L4.41382422,16.5136523 C4.41515625,16.5130078 4.41653125,16.5123203 4.41782031,16.5116758 C5.51666016,15.9622773 6.19926172,14.8578086 6.19926172,13.6292891 L6.19926172,10.334832 C6.19926172,9.837125 6.31691016,9.33877344 6.54030469,8.89198437 L9.55795703,2.81371094 C9.71973437,2.49015625 10.0449219,2.28919141 10.4066328,2.28919141 C10.9298203,2.28919141 11.3554688,2.71483984 11.3554688,3.23802734 C11.3554688,3.88036719 11.3789727,4.023625 11.2552656,4.27095312 C10.5905391,5.60040625 10.0328906,6.82789453 9.39295703,8.63735156 C9.39278516,8.63773828 8.88751563,10.0663633 8.88751563,10.0663633 C8.82555469,10.2274531 8.77734375,10.4729766 8.77734375,10.7109375 L8.77734375,14.578082 C8.77734375,14.9340352 9.06592188,15.2226133 9.421875,15.2226133 C9.77782813,15.2226133 10.0664062,14.9340352 10.0664062,14.578082 L10.0664062,10.7109375 C10.0664062,10.3481953 10.3616016,10.0664062 10.7109375,10.0664062 C11.066332,10.0664062 11.3554688,10.355543 11.3554688,10.7109375 L11.3554688,16.0551758 L11.3554687,16.0551758 Z M10.7119687,8.77730078 C11.1105469,7.67708594 11.5411797,6.64037891 11.9960469,5.68453906 C12.4511289,6.65864062 12.8822773,7.69375781 13.2838633,8.77730078 C12.7910547,8.77863281 12.3412148,8.96550391 12.000043,9.27126953 C11.6579258,8.96460156 11.2064531,8.77755859 10.7119687,8.77730078 Z M19.44975,21.4880586 L14.4259727,18.9375625 C13.3271328,18.388207 12.6445312,17.2836953 12.6445312,16.0551758 L12.6445312,10.7108945 C12.6445312,10.3555 12.933668,10.0663633 13.2890625,10.0663633 C13.6390859,10.0663633 13.9335937,10.3488828 13.9335937,10.7108945 L13.9335937,14.5780391 C13.9335937,14.9339922 14.2221719,15.2225703 14.578125,15.2225703 C14.9340781,15.2225703 15.2226562,14.9339922 15.2226562,14.5780391 L15.2226562,10.7108945 C15.2226562,10.2733438 15.1106797,10.0613359 14.7323828,8.99167187 C14.1346016,7.30141016 13.4658359,5.71315625 12.7446914,4.27086719 C12.6214141,4.02426953 12.6445312,3.88655469 12.6445312,3.23789844 C12.6445312,2.71471094 13.0701797,2.2890625 13.5933672,2.2890625 C13.9550781,2.2890625 14.2802656,2.49002734 14.4411836,2.81194922 L17.4605117,8.89353125 C17.6830898,9.33864453 17.8007383,9.83703906 17.8007383,10.3347461 L17.8007383,13.6292031 C17.8007383,14.8577656 18.4833398,15.9622344 19.5821797,16.5115898 C19.5835117,16.5122773 19.5848867,16.5129219 19.5861758,16.5135664 L21.4867695,17.4474063 L19.44975,21.4880586 Z" id="Shape" fill="#262626"></path>
    </g>
</svg>